<svg xmlns="http://www.w3.org/2000/svg" width="128" height="128" viewBox="0 0 128 128">
    <g transform="translate(64,64) scale(0.045,-0.045) translate(-1165,-1080)" fill="#000000">
        <path d="M1010 2145 c-356 -58 -657 -317 -775 -665 l-22 -65 -86 -5 c-125 -7
-122 -2 -121 -208 1 -234 31 -367 124 -552 60 -119 111 -191 204 -288 99 -103
185 -169 296 -226 211 -109 428 -151 653 -127 441 48 810 332 965 744 55 146
72 242 79 432 5 164 5 171 -16 197 -20 25 -28 27 -108 30 l-85 3 -27 75 c-114
322 -369 556 -699 641 -101 26 -274 32 -382 14z m304 -110 c295 -52 536 -246
659 -533 15 -35 27 -70 27 -78 0 -12 -117 -14 -836 -14 l-836 0 6 28 c4 15 22
59 41 99 88 189 225 329 410 422 164 81 346 108 529 76z" />
    </g>
</svg>